<?xml version="1.0" encoding="UTF-8" standalone="no"?>
<svg
   version="1.1"
   viewBox="0 0 154.78 35"
   xml:space="preserve"
   shape-rendering="geometricPrecision"
   id="svg18"
   sodipodi:docname="logo.svg"
   inkscape:version="1.1.2 (0a00cf5339, 2022-02-04)"
   xmlns:inkscape="http://www.inkscape.org/namespaces/inkscape"
   xmlns:sodipodi="http://sodipodi.sourceforge.net/DTD/sodipodi-0.dtd"
   xmlns="http://www.w3.org/2000/svg"
   xmlns:svg="http://www.w3.org/2000/svg"><defs
     id="defs22" /><sodipodi:namedview
     id="namedview20"
     pagecolor="#ffffff"
     bordercolor="#666666"
     borderopacity="1.0"
     inkscape:pageshadow="2"
     inkscape:pageopacity="0.0"
     inkscape:pagecheckerboard="0"
     showgrid="false"
     inkscape:zoom="8.7414395"
     inkscape:cx="77.447198"
     inkscape:cy="17.502838"
     inkscape:window-width="1920"
     inkscape:window-height="1012"
     inkscape:window-x="0"
     inkscape:window-y="0"
     inkscape:window-maximized="1"
     inkscape:current-layer="svg18" /><g
     shape-rendering="geometricPrecision"
     transform="matrix(1.3333 0 0 -1.3333 -651.16 963.35)"
     fill="#a55eea"
     id="g12"><g
       transform="matrix(.010414 0 0 .010414 438.99 646.88)"
       stroke-width=".9975"
       id="g6"><path
         d="m6024.6 6299c236.48-9.01 357-293.74 194.89-469.43-43.11-46.74-68-107.39-68-170.98v-356.57c0-76.84-62.88-142.04-139.71-141-74.94 1.01-135.95 62.63-135.95 137.81v359.75c0 62.21-22.45 122.95-65.28 168.08-171.49 180.65-37.65 481.93 214.05 472.34"
         id="path2" /><path
         d="m5480 5351.6c-199.26 160.18-313.53 398.53-313.53 653.93 0 462.43 376.21 838.64 838.65 838.64 462.42 0 838.65-376.21 838.65-838.64 0-249.81-110.21-484.83-302.36-644.79-48.79-40.62-121.33-34.01-161.96 14.81-40.64 48.8-34.02 121.31 14.81 161.95 435.48 362.57 179.51 1076.7-389.14 1076.7-574.02 0-826.6-725.08-381.02-1083.3 49.49-39.8 57.37-112.18 17.58-161.68-39.77-49.48-112.19-57.38-161.68-17.58"
         id="path4" /></g><g
       aria-label="VYTAL"
       transform="scale(1 -1)"
       id="text10"
       style="font-size:27.076px;line-height:1.25;font-family:'TVA 2012';stroke-width:0.078102"><path
         d="m 533.16044,-718.66337 q -0.79324,-0.31729 -1.57326,0.0264 -0.79325,0.33052 -1.11054,1.12376 l -4.0191,10.0874 -4.03231,-10.0874 q -0.3173,-0.79324 -1.09732,-1.12376 -0.78002,-0.34373 -1.57326,-0.0264 -0.79325,0.3173 -1.13698,1.11054 -0.33052,0.78002 -0.0132,1.57326 l 5.93609,14.8733 q 0.23797,0.59493 0.75358,0.95189 0.52883,0.35696 1.16342,0.35696 0.6346,0 1.1502,-0.35696 0.52883,-0.35696 0.76681,-0.95189 l 5.93609,-14.8733 q 0.3173,-0.79324 -0.0264,-1.57326 -0.33052,-0.79324 -1.12376,-1.11054 z"
         id="path2813" /><path
         d="m 545.29704,-699.96929 q 0.84613,0 1.42784,-0.59494 0.59493,-0.59493 0.59493,-1.42783 v -6.35916 l 5.57914,-6.99375 q 0.52883,-0.64782 0.43628,-1.48072 -0.0925,-0.8329 -0.75358,-1.36173 -0.64781,-0.51561 -1.48072,-0.42307 -0.8329,0.0926 -1.36173,0.74036 l -4.38927,5.49982 -4.07198,-5.44693 q -0.50239,-0.67426 -1.33529,-0.79325 -0.81968,-0.11898 -1.49394,0.38341 -0.67426,0.50238 -0.79324,1.33529 -0.11899,0.8329 0.3834,1.49394 l 5.2354,7.00697 v 6.39882 q 0,0.8329 0.59493,1.42783 0.59493,0.59494 1.42783,0.59494 z"
         id="path2815" /><path
         d="m 562.16666,-714.68394 v 12.82409 q 0,0.84612 0.59494,1.45427 0.60815,0.60816 1.45427,0.60816 0.85935,0 1.4675,-0.60816 0.59493,-0.60815 0.59493,-1.45427 v -12.82409 h 3.90011 q 0.85935,0 1.45428,-0.60815 0.60815,-0.59493 0.60815,-1.45428 0,-0.84612 -0.60815,-1.45427 -0.59493,-0.60816 -1.45428,-0.60816 h -11.91185 q -0.85935,0 -1.45428,0.60816 -0.60815,0.60815 -0.60815,1.45427 0,0.85935 0.60815,1.45428 0.59493,0.60815 1.45428,0.60815 z"
         id="path2817" /><path
         d="m 580.9665,-717.51317 q -0.23797,-0.58171 -0.7668,-0.93867 -0.51561,-0.35696 -1.1502,-0.35696 -0.6346,0 -1.16342,0.35696 -0.51561,0.35696 -0.75358,0.93867 l -5.9361,14.88652 q -0.3173,0.79324 0.0132,1.57326 0.34374,0.79324 1.13698,1.09732 0.79324,0.31729 1.57326,-0.0132 0.78003,-0.34374 1.09732,-1.13698 l 4.03232,-10.0874 4.01909,10.0874 q 0.23797,0.60815 0.78002,0.95189 0.51561,0.35696 1.13698,0.35696 0.39662,0 0.7668,-0.15865 0.79325,-0.30408 1.12376,-1.09732 0.34374,-0.78002 0.0264,-1.57326 z"
         id="path2819" /><path
         d="m 594.45162,-704.09415 v -12.82408 q 0,-0.85935 -0.60815,-1.4675 -0.60815,-0.59493 -1.45428,-0.59493 -0.85935,0 -1.45428,0.59493 -0.60815,0.60815 -0.60815,1.4675 v 14.88651 q 0,0.84612 0.60815,1.45427 0.59493,0.60816 1.45428,0.60816 h 10.00807 q 0.85935,0 1.45428,-0.60816 0.60815,-0.60815 0.60815,-1.45427 0,-0.85935 -0.60815,-1.45428 -0.59493,-0.60815 -1.45428,-0.60815 z"
         id="path2821" /></g></g><g
     transform="translate(-651.16 -636.65)"
     id="g16"><ellipse
       cx="668.69"
       cy="654.15"
       rx="15.958"
       ry="15.93"
       fill="none"
       stroke="#a55eea"
       stroke-width="3.1392"
       id="ellipse14" /></g></svg>
