<?xml version="1.0" encoding="UTF-8"?>
<svg version="1.1" height="36" viewBox="0 0 154.78 35" xml:space="preserve" shape-rendering="geometricPrecision" xmlns="http://www.w3.org/2000/svg"><g shape-rendering="geometricPrecision" transform="matrix(1.3333 0 0 -1.3333 -651.16 963.35)" fill="#a55eea"><g transform="matrix(.010414 0 0 .010414 438.99 646.88)" stroke-width=".9975"><path d="m6024.6 6299c236.48-9.01 357-293.74 194.89-469.43-43.11-46.74-68-107.39-68-170.98v-356.57c0-76.84-62.88-142.04-139.71-141-74.94 1.01-135.95 62.63-135.95 137.81v359.75c0 62.21-22.45 122.95-65.28 168.08-171.49 180.65-37.65 481.93 214.05 472.34"/><path d="m5480 5351.6c-199.26 160.18-313.53 398.53-313.53 653.93 0 462.43 376.21 838.64 838.65 838.64 462.42 0 838.65-376.21 838.65-838.64 0-249.81-110.21-484.83-302.36-644.79-48.79-40.62-121.33-34.01-161.96 14.81-40.64 48.8-34.02 121.31 14.81 161.95 435.48 362.57 179.51 1076.7-389.14 1076.7-574.02 0-826.6-725.08-381.02-1083.3 49.49-39.8 57.37-112.18 17.58-161.68-39.77-49.48-112.19-57.38-161.68-17.58"/></g><text transform="scale(1 -1)" x="517.22949" y="-699.79742" font-family="'TVA 2012'" font-size="27.076px" stroke-width=".078102" style="line-height:1.25" xml:space="preserve"><tspan x="517.22949" y="-699.79742" fill="#a55eea" font-family="'TVA 2012'" font-size="27.076px" stroke-width=".078102">VYTAL</tspan></text></g><g transform="translate(-651.16 -636.65)"><ellipse cx="668.69" cy="654.15" rx="15.958" ry="15.93" fill="none" stroke="#a55eea" stroke-width="3.1392"/></g></svg>
